<?xml version="1.0" encoding="UTF-8" standalone="no"?>
<svg
	xmlns="http://www.w3.org/2000/svg"
	xmlns:xlink="http://www.w3.org/1999/xlink"
	width="524"
	height="744">
		<rect style="fill:#eee;"
			width="524"
			height="744"/>
	<g>
		<g transform="translate(65,30)">
			<!-- Hackspace Logo: Ideally alter this to be an exact number -->
			<circle
				cx="57"
				cy="57"
				r="57"
				id="circle236"
				style="fill:#3528a8;fill-opacity:1" />
			<g id="g238">
				<!-- H inside logo -->
				<path
					d="M 57,98.501 43.999,85.5 46.217,83.282 30.717,67.781 28.499,70 15.498,57 34.987,37.51 l 13.002,13 -4.234,4.235 2.66,2.661 10.992,-10.993 -2.66,-2.66 -4.089,4.089 L 37.656,34.841 57,15.497 70.001,28.498 67.784,30.716 83.282,46.216 85.501,43.998 98.503,57 79.159,76.343 66.157,63.342 70.246,59.253 68.083,57.09 57.091,68.083 59.253,70.245 63.487,66.011 76.49,79.014 57,98.501 z"
					id="path240"
					style="fill:#ffffff" />
			</g>
		</g>
		<text style="font-size:40px;font-weight:bold;">
			<tspan x="205" y="75">London</tspan>
			<tspan x="205" y="120">Hackspace</tspan>
		</text>
		<text x="85.85714" y="180" style="font-size:20px;">Asset Management and Acquisition</text>
		<rect
			width="424"
			height="190"
			x="50"
			y="200"
			style="fill:#ffe1e1;fill-opacity:1;stroke:#570000;stroke-width:2;stroke-miterlimit:4;stroke-opacity:1;stroke-dasharray:none" />
		<text x="60" y="230" style="font-size:20px;font-weight:bold;">Beverages Donations</text>
		<text style="font-size:16px;">
			<tspan x="60" y="255">This donations box is for contributions towards the</tspan>
			<tspan x="60" y="275">the replenishment of beverages in the hackspace</tspan>
			<tspan x="60" y="295">fridge.</tspan>
		</text>
		<text style="font-size:16px;">
			<tspan x="60" y="335">Please place donations towards the hackspace</tspan>
			<tspan x="60" y="355">itself or for replacing other consumables in the</tspan>
			<tspan x="60" y="375">other donations tins.</tspan>
		</text>
		<rect
			width="397"
			height="205.22194"
			x="53.5"
			y="705.86218"
			id="rect3295-8"
			style="fill:#e1ffe1;fill-opacity:1;stroke:#005700;stroke-width:2.08959913;stroke-miterlimit:4;stroke-opacity:1;stroke-dasharray:none" />
		<text
			x="59.853245"
			y="734.65381"
			id="text4065-7"
			xml:space="preserve"
			style="font-size:40px;font-style:normal;font-weight:normal;line-height:125%;letter-spacing:0px;word-spacing:0px;fill:#000000;fill-opacity:1;stroke:none;font-family:Sans"><tspan
				x="59.853245"
				y="734.65381"
				id="tspan4067-9"
				style="font-size:20px;font-weight:bold;-inkscape-font-specification:Sans Bold">Accepted Tender</tspan></text>
		<image
xlink:href="50.png"			
x="64.958138"
			y="742.95801"
			width="69.947449"
			height="73.628899"
			id="image4186" />
		<image
xlink:href="£1.png"			
x="141.68839"
			y="753.36029"
			width="44.720779"
			height="49.140858"
			id="image4251" />
		<image
	xlink:href="£5.png"
			x="159.96225"
			y="820.81476"
			width="80"
			height="42.666668"
			id="image4316" />
		<image
	xlink:href="£10.png"
			x="70.159676"
			y="820.81476"
			width="80"
			height="42.666664"
			id="image4381" />
		<image
	xlink:href="£20.png"
			x="247.28993"
			y="820.1076"
			width="80"
			height="42.666668"
			id="image4446" />
		<image
	xlink:href="£50.png"
			x="332.14276"
			y="820.1076"
			width="80"
			height="42.666668"
			id="image4511" />
		<text
			x="70.710678"
			y="574.38885"
			transform="translate(0,308.26769)"
			id="text4514"
			xml:space="preserve"
			style="font-size:16px;font-style:normal;font-weight:normal;line-height:125%;letter-spacing:0px;word-spacing:0px;fill:#000000;fill-opacity:1;stroke:none;font-family:Sans"><tspan
				x="70.710678"
				y="574.38885"
				id="tspan4516">Other tender will be removed and donated to</tspan><tspan
				x="70.710678"
				y="594.38885"
				id="tspan4518">the hackspace.</tspan></text>
	</g>
</svg>
